<svg width="183" height="50" viewBox="0 0 183 50" fill="none" xmlns="http://www.w3.org/2000/svg">
<g filter="url(#filter0_d_132_1235)">
<rect x="4" width="175" height="42" rx="10" fill="#FF0000"/>
<path d="M4 10C4 4.47715 8.47715 0 14 0H49C54.5228 0 59 4.47715 59 10V42H14C8.47715 42 4 37.5228 4 32V10Z" fill="white"/>
<path d="M25.5966 21.0028C26.4238 21.2785 26.8934 21.7555 26.953 22.5828C27.0201 23.4995 26.6251 24.1851 25.8872 24.6919C25.4624 24.99 24.978 25.1689 24.4712 25.2583C23.5098 25.4372 22.5409 25.4446 21.5795 25.2881C20.6106 25.1316 20.1858 24.5429 20.3945 23.574C20.8268 21.5766 21.2888 19.5793 21.7435 17.5894C21.7807 17.4329 21.8254 17.3136 22.0267 17.2987C23.1148 17.2018 24.1954 17.0379 25.291 17.2242C25.6935 17.2913 26.081 17.3881 26.4387 17.567C27.6759 18.1781 27.8026 19.6538 26.707 20.4811C26.394 20.7121 26.0437 20.8612 25.5966 21.0028ZM22.7496 21.763C22.608 22.4113 22.4738 23.0076 22.3397 23.5963C22.2875 23.8199 22.3173 23.9988 22.5856 24.0137C23.2117 24.0435 23.8377 24.0137 24.3967 23.6858C24.8215 23.4398 25.0003 23.0523 24.9407 22.5604C24.8811 22.0909 24.5457 21.9046 24.1358 21.7779C23.6812 21.6437 23.2415 21.8673 22.7496 21.763ZM24.1284 18.5061C23.9346 18.6328 23.5694 18.3272 23.4502 18.7297C23.3235 19.1768 23.234 19.6389 23.1297 20.101C23.0924 20.2575 23.1446 20.3991 23.316 20.4065C23.9868 20.4438 24.6575 20.4513 25.2016 19.9743C25.7307 19.5122 25.5668 18.7967 24.896 18.5806C24.6575 18.5135 24.4116 18.5135 24.1284 18.5061Z" fill="#FF0000"/>
<path d="M41.7766 18.6178C41.3965 17.5744 40.4351 17.3284 39.4513 17.2315C38.542 17.1421 37.6253 17.1868 36.7161 17.2912C36.4031 17.3284 36.2466 17.4477 36.172 17.7756C35.6354 20.2201 35.0765 22.6647 34.5324 25.1092C34.5101 25.1986 34.4653 25.2955 34.5846 25.4073C34.8007 25.4073 35.0541 25.4073 35.3001 25.4073C36.2093 25.4073 36.4776 25.1912 36.6788 24.3117C36.7981 23.79 36.9173 23.2609 37.0291 22.7541C37.2154 22.687 37.3645 22.7392 37.5136 22.7466C38.8253 22.7914 40.0699 22.5752 41.0313 21.5914C41.8511 20.7567 42.1939 19.7431 41.7766 18.6178ZM40.1369 19.922C39.9581 20.7716 39.2277 21.3008 38.2216 21.3082C37.5657 21.3082 37.5061 21.2337 37.6477 20.5704C37.7669 20.0264 37.8936 19.4898 37.9905 18.9457C38.0353 18.6774 38.1694 18.5731 38.4303 18.5731C38.706 18.5656 38.9818 18.5507 39.2575 18.6029C39.973 18.737 40.286 19.2065 40.1369 19.922Z" fill="#FF0000"/>
<path d="M34.4206 17.3733C32.699 16.7473 31.0445 16.859 29.621 18.0888C28.2572 19.2663 27.8249 20.8314 27.9963 22.5903C28.0932 23.5964 28.518 24.4386 29.4198 24.9528C30.5675 25.6087 31.7973 25.631 33.0344 25.2658C33.3102 25.1839 33.5189 24.9901 33.5934 24.6994C33.7052 24.2597 33.8021 23.82 33.9139 23.3206C33.5263 23.5293 33.2133 23.7231 32.8556 23.8349C31.7302 24.1852 30.6048 23.7529 30.2098 22.8139C29.6657 21.5171 30.4408 19.475 31.7302 18.8788C32.7885 18.3943 33.8095 18.6105 34.8306 19.1769C34.8902 18.9533 34.9498 18.7521 35.002 18.5508C35.151 17.9323 35.0243 17.5969 34.4206 17.3733Z" fill="#FF0000"/>
<path d="M17.1302 17.9844C18.1438 18.4986 18.9561 19.2364 19.5524 20.1904C19.9175 20.7792 19.8728 21.4276 19.4629 21.994C18.6208 23.1715 17.5028 24.0361 16.206 24.6323C15.3341 25.0347 14.3726 24.5652 14 23.6187C14.5217 23.343 15.0434 23.0597 15.5204 22.7095C16.2358 22.1878 16.8544 21.5841 17.16 20.727C17.5774 19.8103 17.6146 18.8936 17.1302 17.9844Z" fill="#570001"/>
<path d="M45.0782 17.9844C46.0918 18.4912 46.9041 19.2439 47.5078 20.1904C47.873 20.7643 47.8432 21.3978 47.4482 21.9567C46.5985 23.1641 45.4583 24.0435 44.1317 24.6472C43.2671 25.0347 42.3281 24.5578 41.9629 23.6336C42.4548 23.3653 42.9541 23.097 43.4087 22.7616C44.1466 22.225 44.8024 21.6139 45.1154 20.727C45.5402 19.8029 45.5701 18.8862 45.0782 17.9844Z" fill="#570001"/>
<path d="M17.1301 17.9844C17.6146 18.8936 17.5699 19.8029 17.1525 20.7196C16.519 20.0339 15.729 19.5644 14.8943 19.1918C15.334 18.0068 16.3327 17.4851 17.1301 17.9844Z" fill="#FF0000"/>
<path d="M45.0783 17.9845C45.5702 18.8937 45.5403 19.803 45.1081 20.7271C44.482 20.0415 43.6995 19.5794 42.8201 19.1844C43.1107 18.5286 43.5281 18.0516 44.1839 17.8056C44.5193 17.6715 44.81 17.7684 45.0783 17.9845Z" fill="#FF0000"/>
</g>
<path d="M83.8443 26V14.1736H85.4462V26H83.8443ZM93.6908 26V21.2797C93.6908 20.6662 93.4976 20.1607 93.1114 19.763C92.7251 19.3654 92.2253 19.1666 91.6118 19.1666C91.2028 19.1666 90.8393 19.2575 90.5212 19.4393C90.2031 19.621 89.9531 19.871 89.7714 20.1891C89.5896 20.5072 89.4987 20.8707 89.4987 21.2797L88.8682 20.9218C88.8682 20.3083 89.0045 19.763 89.2772 19.2859C89.5498 18.8087 89.9304 18.4339 90.4189 18.1612C90.9074 17.8772 91.4584 17.7352 92.0719 17.7352C92.6854 17.7352 93.225 17.8885 93.6908 18.1953C94.1679 18.502 94.5428 18.9053 94.8155 19.4052C95.0881 19.8937 95.2244 20.4163 95.2244 20.9729V26H93.6908ZM87.965 26V17.9056H89.4987V26H87.965ZM98.445 26V14.5144H99.9787V26H98.445ZM96.4513 19.3029V17.9056H101.973V19.3029H96.4513ZM106.974 26.1704C106.168 26.1704 105.441 25.9886 104.793 25.6251C104.145 25.2502 103.634 24.7447 103.259 24.1085C102.884 23.4723 102.697 22.7509 102.697 21.9443C102.697 21.149 102.879 20.4333 103.242 19.7971C103.617 19.1609 104.117 18.6611 104.742 18.2975C105.378 17.9226 106.088 17.7352 106.872 17.7352C107.622 17.7352 108.281 17.9056 108.849 18.2464C109.428 18.5872 109.877 19.0587 110.195 19.6608C110.524 20.2629 110.689 20.9445 110.689 21.7057C110.689 21.8193 110.683 21.9443 110.672 22.0806C110.661 22.2056 110.638 22.3533 110.604 22.5237H103.771V21.2456H109.786L109.224 21.7398C109.224 21.1945 109.127 20.7344 108.934 20.3595C108.741 19.9732 108.468 19.6778 108.116 19.4733C107.764 19.2575 107.338 19.1496 106.838 19.1496C106.315 19.1496 105.855 19.2632 105.458 19.4904C105.06 19.7176 104.753 20.0357 104.537 20.4447C104.322 20.8537 104.214 21.3365 104.214 21.8931C104.214 22.4612 104.327 22.961 104.554 23.3927C104.782 23.8131 105.105 24.1425 105.526 24.3811C105.946 24.6083 106.429 24.7219 106.974 24.7219C107.429 24.7219 107.843 24.6424 108.218 24.4834C108.605 24.3243 108.934 24.0857 109.207 23.7676L110.195 24.7731C109.809 25.2275 109.332 25.574 108.764 25.8126C108.207 26.0511 107.61 26.1704 106.974 26.1704ZM112.361 26V17.9056H113.895V26H112.361ZM113.895 21.3819L113.316 21.1263C113.316 20.0925 113.554 19.2689 114.031 18.6554C114.509 18.0419 115.196 17.7352 116.093 17.7352C116.502 17.7352 116.872 17.809 117.201 17.9567C117.531 18.093 117.837 18.3259 118.121 18.6554L117.116 19.6949C116.945 19.5131 116.758 19.3825 116.554 19.3029C116.349 19.2234 116.11 19.1836 115.838 19.1836C115.27 19.1836 114.804 19.3654 114.44 19.729C114.077 20.0925 113.895 20.6435 113.895 21.3819ZM123.278 26.1704C122.665 26.1704 122.108 26.0454 121.608 25.7955C121.12 25.5342 120.728 25.1764 120.432 24.7219C120.137 24.2675 119.972 23.7506 119.938 23.1712V20.7344C119.972 20.1436 120.137 19.6267 120.432 19.1836C120.739 18.7292 121.137 18.377 121.625 18.1271C122.125 17.8658 122.676 17.7352 123.278 17.7352C124.017 17.7352 124.681 17.9226 125.272 18.2975C125.874 18.6724 126.346 19.178 126.686 19.8142C127.027 20.4504 127.198 21.1661 127.198 21.9613C127.198 22.7566 127.027 23.4723 126.686 24.1085C126.346 24.7447 125.874 25.2502 125.272 25.6251C124.681 25.9886 124.017 26.1704 123.278 26.1704ZM123.023 24.7219C123.534 24.7219 123.983 24.6026 124.369 24.3641C124.755 24.1255 125.062 23.8017 125.289 23.3927C125.516 22.9724 125.63 22.4896 125.63 21.9443C125.63 21.4103 125.516 20.9332 125.289 20.5128C125.062 20.0925 124.755 19.7687 124.369 19.5415C123.983 19.3029 123.54 19.1836 123.04 19.1836C122.528 19.1836 122.08 19.3029 121.693 19.5415C121.307 19.7687 121.006 20.0925 120.79 20.5128C120.574 20.9332 120.467 21.416 120.467 21.9613C120.467 22.4953 120.569 22.9724 120.773 23.3927C120.989 23.8017 121.29 24.1255 121.676 24.3641C122.074 24.6026 122.523 24.7219 123.023 24.7219ZM119.018 26V13.8328H120.552V19.8823L120.262 21.842L120.552 23.8188V26H119.018ZM132.379 26.1704C131.64 26.1704 130.97 25.9886 130.368 25.6251C129.766 25.2502 129.289 24.7447 128.936 24.1085C128.596 23.4723 128.425 22.7566 128.425 21.9613C128.425 21.1661 128.596 20.4504 128.936 19.8142C129.289 19.178 129.76 18.6724 130.351 18.2975C130.953 17.9226 131.629 17.7352 132.379 17.7352C132.992 17.7352 133.537 17.8658 134.015 18.1271C134.503 18.377 134.895 18.7292 135.19 19.1836C135.486 19.6267 135.65 20.1436 135.685 20.7344V23.1712C135.65 23.7506 135.486 24.2675 135.19 24.7219C134.906 25.1764 134.52 25.5342 134.032 25.7955C133.554 26.0454 133.003 26.1704 132.379 26.1704ZM132.634 24.7219C133.395 24.7219 134.009 24.4663 134.475 23.9551C134.94 23.4325 135.173 22.7679 135.173 21.9613C135.173 21.4046 135.065 20.9218 134.85 20.5128C134.645 20.0925 134.35 19.7687 133.963 19.5415C133.577 19.3029 133.128 19.1836 132.617 19.1836C132.106 19.1836 131.652 19.3029 131.254 19.5415C130.868 19.7801 130.561 20.1095 130.334 20.5299C130.118 20.9389 130.01 21.4103 130.01 21.9443C130.01 22.4896 130.118 22.9724 130.334 23.3927C130.561 23.8017 130.873 24.1255 131.271 24.3641C131.669 24.6026 132.123 24.7219 132.634 24.7219ZM135.071 26V23.8188L135.361 21.842L135.071 19.8823V17.9056H136.622V26H135.071ZM144.58 26V21.2797C144.58 20.6662 144.387 20.1607 144.001 19.763C143.615 19.3654 143.115 19.1666 142.501 19.1666C142.092 19.1666 141.729 19.2575 141.411 19.4393C141.093 19.621 140.843 19.871 140.661 20.1891C140.479 20.5072 140.388 20.8707 140.388 21.2797L139.758 20.9218C139.758 20.3083 139.894 19.763 140.167 19.2859C140.439 18.8087 140.82 18.4339 141.309 18.1612C141.797 17.8772 142.348 17.7352 142.962 17.7352C143.575 17.7352 144.115 17.8885 144.58 18.1953C145.058 18.502 145.432 18.9053 145.705 19.4052C145.978 19.8937 146.114 20.4163 146.114 20.9729V26H144.58ZM138.855 26V17.9056H140.388V26H138.855ZM153.371 26L149.588 21.8591L153.337 17.9056H155.194L151.019 22.268L151.088 21.3819L155.348 26H153.371ZM148.191 26V13.8328H149.724V26H148.191Z" fill="white"/>
<defs>
<filter id="filter0_d_132_1235" x="0" y="0" width="183" height="50" filterUnits="userSpaceOnUse" color-interpolation-filters="sRGB">
<feFlood flood-opacity="0" result="BackgroundImageFix"/>
<feColorMatrix in="SourceAlpha" type="matrix" values="0 0 0 0 0 0 0 0 0 0 0 0 0 0 0 0 0 0 127 0" result="hardAlpha"/>
<feOffset dy="4"/>
<feGaussianBlur stdDeviation="2"/>
<feComposite in2="hardAlpha" operator="out"/>
<feColorMatrix type="matrix" values="0 0 0 0 0 0 0 0 0 0 0 0 0 0 0 0 0 0 0.25 0"/>
<feBlend mode="normal" in2="BackgroundImageFix" result="effect1_dropShadow_132_1235"/>
<feBlend mode="normal" in="SourceGraphic" in2="effect1_dropShadow_132_1235" result="shape"/>
</filter>
</defs>
</svg>
