<svg width="183" height="50" viewBox="0 0 183 50" fill="none" xmlns="http://www.w3.org/2000/svg">
<g filter="url(#filter0_d_132_1219)">
<rect x="4" width="175" height="42" rx="10" fill="#FF0000"/>
<path d="M4 10C4 4.47715 8.47715 0 14 0H49C54.5228 0 59 4.47715 59 10V42H14C8.47715 42 4 37.5228 4 32V10Z" fill="white"/>
<path fill-rule="evenodd" clip-rule="evenodd" d="M26.3445 21.9947H36.9616C37.7841 21.9947 38.4558 21.3162 38.4558 20.4937V10H27.8387C27.0162 10 26.3376 10.6786 26.3376 11.5011V21.9947H26.3445ZM29.2027 20.0824L35.5016 18.9789V12.3921L29.2027 13.4956V20.0824V20.0824Z" fill="#FF0000"/>
<path fill-rule="evenodd" clip-rule="evenodd" d="M35.4503 27.3051C36.1283 27.3051 36.6725 27.8955 36.6725 28.8272C36.6725 29.7589 36.1283 30.3724 35.4503 30.3724C35.0859 30.3724 34.7722 30.2201 34.5508 29.9342C34.3295 29.639 34.2649 29.3254 34.2603 28.9518C34.2557 28.5136 34.2926 28.1446 34.4863 27.8494C34.7215 27.5035 35.0674 27.3051 35.4503 27.3051ZM34.3018 25.165L34.2879 27.1253C34.8553 26.5487 35.4825 26.4104 36.2713 26.6271C37.1614 26.8716 37.6688 27.7018 37.678 28.8457C37.7011 30.3078 36.6818 31.2256 35.4733 31.2349C34.1496 31.2487 33.2363 30.317 33.2456 28.9656V25.165H34.3018ZM32.36 26.3781H32.6644V27.4251H32.36V27.4205C32.134 27.4205 31.9264 27.5173 31.7696 27.6695C31.622 27.8171 31.5251 28.0247 31.5251 28.2599H31.5298V31.1472H30.4781V28.2599C30.4781 27.7387 30.6903 27.2729 31.0362 26.9269C31.3776 26.5902 31.8388 26.3827 32.36 26.3827V26.3781V26.3781ZM28.2504 29.353H26.7329C26.7468 29.4084 26.7606 29.4591 26.7837 29.5052C26.9682 29.9803 27.3694 30.2248 27.8353 30.3078H27.8399C27.8998 30.317 27.969 30.3262 28.0382 30.3355C28.0982 30.3401 28.1674 30.3447 28.2319 30.3447C28.7255 30.3585 29.1129 30.1971 29.3481 30.0726C29.3804 30.2755 29.3573 30.6306 29.3343 30.7644C29.2467 31.2072 28.4533 31.2395 28.1628 31.2395V31.2441C28.0705 31.2441 27.9829 31.2395 27.886 31.2303C27.7892 31.2256 27.7015 31.2118 27.6093 31.1934C26.3916 30.9766 25.732 29.925 25.7782 28.758V28.7534V28.735C25.8105 27.7572 26.3547 26.8854 27.3002 26.5948H27.3049L27.3233 26.5902L27.3279 26.5856C28.0843 26.3596 28.7808 26.5718 29.2513 26.9777C29.3389 27.0607 29.4219 27.1483 29.4957 27.236C29.5695 27.3328 29.6341 27.4297 29.6848 27.5358L29.6894 27.545C29.7955 27.771 29.8463 27.9693 29.8463 28.163C29.8463 28.3983 29.7678 28.6058 29.6387 28.7811C29.5188 28.9379 29.3666 29.0578 29.1821 29.1455V29.1501C28.8915 29.2931 28.564 29.353 28.2504 29.353ZM26.7099 28.5597H28.2919C28.6424 28.5597 29.0483 28.3798 28.85 27.914L28.8454 27.9048C28.8223 27.854 28.7946 27.8079 28.7624 27.7572C28.7301 27.7064 28.6839 27.6511 28.6332 27.605C28.3749 27.3467 27.9875 27.1991 27.5631 27.342V27.3374L27.5493 27.3467C27.4801 27.3697 27.4109 27.402 27.3464 27.4343C27.2864 27.4666 27.2264 27.5081 27.1711 27.5542C26.9497 27.7341 26.7837 28.1123 26.7099 28.5597ZM23.984 25.2111V26.438H25.6951L25.6582 26.8301C25.6167 27.1806 25.4184 27.2775 25.0264 27.2867H23.9886V29.5145C23.9932 29.579 23.9932 29.7312 24.007 29.7912C24.0762 30.1371 24.2745 30.234 24.602 30.2663C24.9203 30.3078 25.4415 30.2478 25.6859 30.1371C25.7228 30.52 25.6721 31.0273 25.4553 31.1103C25.2431 31.1887 24.8096 31.2256 24.5144 31.2164C24.376 31.2118 24.2238 31.198 24.0808 31.1703C23.8364 31.1242 23.4812 30.9304 23.306 30.7598C22.9831 30.3908 22.9646 29.9711 22.9416 29.5375L22.937 29.5098V25.2111H23.984ZM19.8698 26.3781H20.248V26.3827C20.7692 26.3827 21.2396 26.5902 21.5763 26.9269C21.9176 27.2682 22.1298 27.7387 22.1298 28.2553V31.1426H21.0828V28.2553H21.0874C21.0828 28.0247 20.9906 27.8171 20.843 27.6649C20.6908 27.5173 20.474 27.4158 20.248 27.4158V27.4205H19.8698V27.4158C19.6438 27.4158 19.4362 27.5127 19.2794 27.6649C19.1318 27.8125 19.0349 28.0201 19.0349 28.2553H19.0395V31.1426H17.9925V28.2553C17.9925 27.7341 18.2001 27.2682 18.546 26.9223C18.8873 26.5856 19.3532 26.3781 19.8698 26.3781V26.3781ZM16 25.1189H17.0608V31.1472H16V25.1189ZM44.472 26.3781H44.841H44.8456V26.3827C45.3622 26.3827 45.8326 26.5902 46.1786 26.9269C46.5153 27.2682 46.7274 27.7387 46.7274 28.2553H46.732V31.1426H45.6804V28.2553H45.685C45.685 28.0247 45.5928 27.8171 45.436 27.6649C45.2838 27.5173 45.0808 27.4158 44.8456 27.4158V27.4205H44.4766H44.472V27.4158C44.2414 27.4158 44.0338 27.5127 43.8862 27.6649C43.7294 27.8125 43.6326 28.0201 43.6326 28.2553H43.6372V31.1426H42.5856V28.2553H42.5902C42.5902 27.7341 42.8069 27.2682 43.1436 26.9223C43.485 26.5856 43.9554 26.3781 44.472 26.3781ZM47.5807 25.1189H48.6416V31.1472H47.5807V25.1189ZM51.5842 26.5995H50.5326L48.6323 28.7488L50.754 31.1426H51.801L49.6793 28.7488L51.5842 26.5995ZM40.9666 29.0809V29.0578C40.7222 29.0901 40.4823 29.0717 40.2748 29.0717C39.8735 29.0763 39.6429 29.1086 39.4169 29.21C39.2001 29.3069 39.0894 29.5052 39.0617 29.6805V29.7128C39.034 30.0864 39.2232 30.3631 39.5645 30.4139H39.5737V30.4185C39.9796 30.4738 40.2978 30.4093 40.5331 30.2986C40.7222 30.2155 40.8559 29.9988 40.9159 29.722C40.9666 29.5467 40.962 29.2838 40.9666 29.0809ZM39.6752 26.4242C40.201 26.3827 40.8144 26.4288 41.2434 26.7609C41.4094 26.89 41.5616 27.0422 41.6769 27.2729C41.7968 27.5127 41.8015 27.8125 41.8245 28.0708V29.4683C41.8245 30.1556 41.6031 30.769 40.9067 31.0873C40.6807 31.1841 40.4224 31.2441 40.1364 31.2487C38.951 31.2764 38.0608 30.6814 38.1531 29.5929C38.213 28.8088 38.8864 28.4721 39.6659 28.4167C40.0395 28.389 40.6853 28.4721 40.9205 28.4213C40.9389 28.1815 40.879 27.8725 40.8052 27.7064C40.7406 27.5634 40.6299 27.402 40.4408 27.342C40.201 27.2406 39.8643 27.2314 39.5875 27.2498C39.2324 27.2775 38.9556 27.3282 38.5451 27.5681L38.5497 27.1622C38.5497 27.0376 38.5682 26.89 38.6328 26.784C38.7896 26.5257 39.3431 26.4473 39.6752 26.4242Z" fill="#FF0000"/>
</g>
<path d="M83.8443 26V14.1736H85.4462V26H83.8443ZM93.6908 26V21.2797C93.6908 20.6662 93.4976 20.1607 93.1114 19.763C92.7251 19.3654 92.2253 19.1666 91.6118 19.1666C91.2028 19.1666 90.8393 19.2575 90.5212 19.4393C90.2031 19.621 89.9531 19.871 89.7714 20.1891C89.5896 20.5072 89.4987 20.8707 89.4987 21.2797L88.8682 20.9218C88.8682 20.3083 89.0045 19.763 89.2772 19.2859C89.5498 18.8087 89.9304 18.4339 90.4189 18.1612C90.9074 17.8772 91.4584 17.7352 92.0719 17.7352C92.6854 17.7352 93.225 17.8885 93.6908 18.1953C94.1679 18.502 94.5428 18.9053 94.8155 19.4052C95.0881 19.8937 95.2244 20.4163 95.2244 20.9729V26H93.6908ZM87.965 26V17.9056H89.4987V26H87.965ZM98.445 26V14.5144H99.9787V26H98.445ZM96.4513 19.3029V17.9056H101.973V19.3029H96.4513ZM106.974 26.1704C106.168 26.1704 105.441 25.9886 104.793 25.6251C104.145 25.2502 103.634 24.7447 103.259 24.1085C102.884 23.4723 102.697 22.7509 102.697 21.9443C102.697 21.149 102.879 20.4333 103.242 19.7971C103.617 19.1609 104.117 18.6611 104.742 18.2975C105.378 17.9226 106.088 17.7352 106.872 17.7352C107.622 17.7352 108.281 17.9056 108.849 18.2464C109.428 18.5872 109.877 19.0587 110.195 19.6608C110.524 20.2629 110.689 20.9445 110.689 21.7057C110.689 21.8193 110.683 21.9443 110.672 22.0806C110.661 22.2056 110.638 22.3533 110.604 22.5237H103.771V21.2456H109.786L109.224 21.7398C109.224 21.1945 109.127 20.7344 108.934 20.3595C108.741 19.9732 108.468 19.6778 108.116 19.4733C107.764 19.2575 107.338 19.1496 106.838 19.1496C106.315 19.1496 105.855 19.2632 105.458 19.4904C105.06 19.7176 104.753 20.0357 104.537 20.4447C104.322 20.8537 104.214 21.3365 104.214 21.8931C104.214 22.4612 104.327 22.961 104.554 23.3927C104.782 23.8131 105.105 24.1425 105.526 24.3811C105.946 24.6083 106.429 24.7219 106.974 24.7219C107.429 24.7219 107.843 24.6424 108.218 24.4834C108.605 24.3243 108.934 24.0857 109.207 23.7676L110.195 24.7731C109.809 25.2275 109.332 25.574 108.764 25.8126C108.207 26.0511 107.61 26.1704 106.974 26.1704ZM112.361 26V17.9056H113.895V26H112.361ZM113.895 21.3819L113.316 21.1263C113.316 20.0925 113.554 19.2689 114.031 18.6554C114.509 18.0419 115.196 17.7352 116.093 17.7352C116.502 17.7352 116.872 17.809 117.201 17.9567C117.531 18.093 117.837 18.3259 118.121 18.6554L117.116 19.6949C116.945 19.5131 116.758 19.3825 116.554 19.3029C116.349 19.2234 116.11 19.1836 115.838 19.1836C115.27 19.1836 114.804 19.3654 114.44 19.729C114.077 20.0925 113.895 20.6435 113.895 21.3819ZM123.278 26.1704C122.665 26.1704 122.108 26.0454 121.608 25.7955C121.12 25.5342 120.728 25.1764 120.432 24.7219C120.137 24.2675 119.972 23.7506 119.938 23.1712V20.7344C119.972 20.1436 120.137 19.6267 120.432 19.1836C120.739 18.7292 121.137 18.377 121.625 18.1271C122.125 17.8658 122.676 17.7352 123.278 17.7352C124.017 17.7352 124.681 17.9226 125.272 18.2975C125.874 18.6724 126.346 19.178 126.686 19.8142C127.027 20.4504 127.198 21.1661 127.198 21.9613C127.198 22.7566 127.027 23.4723 126.686 24.1085C126.346 24.7447 125.874 25.2502 125.272 25.6251C124.681 25.9886 124.017 26.1704 123.278 26.1704ZM123.023 24.7219C123.534 24.7219 123.983 24.6026 124.369 24.3641C124.755 24.1255 125.062 23.8017 125.289 23.3927C125.516 22.9724 125.63 22.4896 125.63 21.9443C125.63 21.4103 125.516 20.9332 125.289 20.5128C125.062 20.0925 124.755 19.7687 124.369 19.5415C123.983 19.3029 123.54 19.1836 123.04 19.1836C122.528 19.1836 122.08 19.3029 121.693 19.5415C121.307 19.7687 121.006 20.0925 120.79 20.5128C120.574 20.9332 120.467 21.416 120.467 21.9613C120.467 22.4953 120.569 22.9724 120.773 23.3927C120.989 23.8017 121.29 24.1255 121.676 24.3641C122.074 24.6026 122.523 24.7219 123.023 24.7219ZM119.018 26V13.8328H120.552V19.8823L120.262 21.842L120.552 23.8188V26H119.018ZM132.379 26.1704C131.64 26.1704 130.97 25.9886 130.368 25.6251C129.766 25.2502 129.289 24.7447 128.936 24.1085C128.596 23.4723 128.425 22.7566 128.425 21.9613C128.425 21.1661 128.596 20.4504 128.936 19.8142C129.289 19.178 129.76 18.6724 130.351 18.2975C130.953 17.9226 131.629 17.7352 132.379 17.7352C132.992 17.7352 133.537 17.8658 134.015 18.1271C134.503 18.377 134.895 18.7292 135.19 19.1836C135.486 19.6267 135.65 20.1436 135.685 20.7344V23.1712C135.65 23.7506 135.486 24.2675 135.19 24.7219C134.906 25.1764 134.52 25.5342 134.032 25.7955C133.554 26.0454 133.003 26.1704 132.379 26.1704ZM132.634 24.7219C133.395 24.7219 134.009 24.4663 134.475 23.9551C134.94 23.4325 135.173 22.7679 135.173 21.9613C135.173 21.4046 135.065 20.9218 134.85 20.5128C134.645 20.0925 134.35 19.7687 133.963 19.5415C133.577 19.3029 133.128 19.1836 132.617 19.1836C132.106 19.1836 131.652 19.3029 131.254 19.5415C130.868 19.7801 130.561 20.1095 130.334 20.5299C130.118 20.9389 130.01 21.4103 130.01 21.9443C130.01 22.4896 130.118 22.9724 130.334 23.3927C130.561 23.8017 130.873 24.1255 131.271 24.3641C131.669 24.6026 132.123 24.7219 132.634 24.7219ZM135.071 26V23.8188L135.361 21.842L135.071 19.8823V17.9056H136.622V26H135.071ZM144.58 26V21.2797C144.58 20.6662 144.387 20.1607 144.001 19.763C143.615 19.3654 143.115 19.1666 142.501 19.1666C142.092 19.1666 141.729 19.2575 141.411 19.4393C141.093 19.621 140.843 19.871 140.661 20.1891C140.479 20.5072 140.388 20.8707 140.388 21.2797L139.758 20.9218C139.758 20.3083 139.894 19.763 140.167 19.2859C140.439 18.8087 140.82 18.4339 141.309 18.1612C141.797 17.8772 142.348 17.7352 142.962 17.7352C143.575 17.7352 144.115 17.8885 144.58 18.1953C145.058 18.502 145.432 18.9053 145.705 19.4052C145.978 19.8937 146.114 20.4163 146.114 20.9729V26H144.58ZM138.855 26V17.9056H140.388V26H138.855ZM153.371 26L149.588 21.8591L153.337 17.9056H155.194L151.019 22.268L151.088 21.3819L155.348 26H153.371ZM148.191 26V13.8328H149.724V26H148.191Z" fill="white"/>
<defs>
<filter id="filter0_d_132_1219" x="0" y="0" width="183" height="50" filterUnits="userSpaceOnUse" color-interpolation-filters="sRGB">
<feFlood flood-opacity="0" result="BackgroundImageFix"/>
<feColorMatrix in="SourceAlpha" type="matrix" values="0 0 0 0 0 0 0 0 0 0 0 0 0 0 0 0 0 0 127 0" result="hardAlpha"/>
<feOffset dy="4"/>
<feGaussianBlur stdDeviation="2"/>
<feComposite in2="hardAlpha" operator="out"/>
<feColorMatrix type="matrix" values="0 0 0 0 0 0 0 0 0 0 0 0 0 0 0 0 0 0 0.25 0"/>
<feBlend mode="normal" in2="BackgroundImageFix" result="effect1_dropShadow_132_1219"/>
<feBlend mode="normal" in="SourceGraphic" in2="effect1_dropShadow_132_1219" result="shape"/>
</filter>
</defs>
</svg>
