<svg width="272" height="255" viewBox="0 0 272 255" fill="none" xmlns="http://www.w3.org/2000/svg">
<path fill-rule="evenodd" clip-rule="evenodd" d="M51.9519 1.44942C36.1009 5.71142 24.6899 18.2934 23.1509 33.2074C22.6449 38.1154 22.3369 38.6494 19.4039 39.7094C13.9559 41.6794 7.78985 47.8074 4.71485 54.3084C1.39685 61.3204 0.863862 70.2834 3.28586 78.3304C4.63986 82.8294 4.60186 83.2784 2.64486 85.9254C0.0848553 89.3884 -0.80614 97.3574 0.81686 102.275C3.49686 110.395 11.8779 115.833 19.5069 114.402C26.5589 113.079 30.5529 110.123 38.1309 100.62C49.5659 86.2804 55.4149 80.3074 62.8859 75.3404C67.4229 72.3244 70.8639 69.0764 72.9769 65.8154C76.0459 61.0794 76.3809 60.8654 80.7649 60.8444C85.6799 60.8204 93.0349 57.9734 96.4409 54.7764C98.4339 52.9064 98.8169 52.8844 104.343 54.3234C107.536 55.1554 110.272 55.9584 110.421 56.1074C110.571 56.2574 110.225 60.0454 109.653 64.5264L108.613 72.6744L104.077 73.3544C86.7729 75.9494 66.2719 88.3954 51.7669 105.11C48.3039 109.101 44.9929 112.909 44.4089 113.572C43.6429 114.441 42.2309 114.518 39.3469 113.847C37.1469 113.335 33.9209 113.173 32.1779 113.487L29.0089 114.058L34.6779 117.037C37.7959 118.676 41.1769 120.766 42.1919 121.683C43.9279 123.25 44.1559 123.201 46.0279 120.857C65.2529 96.7924 87.2299 82.4294 109.443 79.4134L114.539 78.7214L115.821 67.2204C117.047 56.2174 117.216 55.6784 119.725 54.7724C130.11 51.0204 135.579 43.9174 136.579 32.8804C137.611 21.5034 131.107 10.4534 120.635 5.79043C113.792 2.74343 102.141 2.51342 93.1859 5.24742C87.0819 7.11142 86.9989 7.11042 84.1859 5.10942C77.2329 0.163418 62.8199 -1.47358 51.9519 1.44942ZM76.5219 8.37242C81.0009 10.2404 86.3689 15.1264 88.5759 19.3444L90.1339 22.3224L91.0349 19.8874C91.5299 18.5474 91.8029 16.3494 91.6409 15.0024C91.2389 11.6524 95.9359 10.0384 106.347 9.95142C113.464 9.89242 114.921 10.2144 119.551 12.8704C128.324 17.9014 132.156 27.0964 129.377 36.4524C127.787 41.8064 124.075 46.0864 119.532 47.8024C115.915 49.1694 109.003 49.1654 105.071 47.7944C102.346 46.8444 102.047 46.3604 102.443 43.5444C102.715 41.6154 102.128 38.7944 100.95 36.3664L99.0089 32.3664L98.9059 35.3664C98.7799 39.0484 95.8289 45.5934 92.9379 48.6054C90.1669 51.4934 86.2009 53.5214 81.6619 54.3734C78.1829 55.0254 78.0189 54.9254 77.3259 51.7094C76.3249 47.0624 74.1629 43.1064 71.9899 41.9424C70.2679 41.0214 70.1829 41.4154 70.6189 48.2194C71.0009 54.1734 70.7199 56.1884 69.0539 59.4224C64.2739 68.7024 53.4479 74.9914 42.2549 74.9914H35.6159L37.9059 77.4294C39.1649 78.7694 40.6799 79.8734 41.2709 79.8814C41.8629 79.8904 42.9809 80.2984 43.7549 80.7884C44.8509 81.4824 43.0089 84.2494 35.4399 93.2814C30.0919 99.6614 24.4179 105.553 22.8309 106.374C13.8969 110.994 4.59086 103.695 6.54886 93.6014C7.29586 89.7524 8.13486 89.5274 12.7599 91.9384C18.1809 94.7634 19.7179 94.0554 16.4899 90.2184C4.18686 75.5974 5.63086 55.3524 19.5569 47.1904L23.9079 44.6404L26.3299 47.2534C29.5319 50.7084 31.1049 50.6514 30.1159 47.1164C29.6929 45.6044 29.3919 41.2164 29.4479 37.3664C29.6609 22.5434 39.3249 11.2844 55.3469 7.19142C61.3979 5.64542 71.3089 6.19842 76.5219 8.37242ZM101.347 90.2724C95.2549 92.2084 85.0779 97.6154 77.8589 102.751C63.0719 113.269 41.4009 136.769 29.0969 155.627C13.5049 179.524 9.20686 201.737 17.1079 217.59C19.8819 223.157 26.1479 228.319 32.1389 229.973C38.8609 231.829 49.5149 231.359 56.8469 228.883C74.5059 222.92 88.2859 213.415 114.847 188.876C139.432 166.162 147.074 160.693 150.06 163.679C150.815 164.434 149.627 166.767 145.992 171.671C139.312 180.681 137.5 185.096 138.143 190.796C139.448 202.373 151.362 201.371 164.588 188.572L168.829 184.468L172.065 187.778C176.262 192.071 178.974 193.059 186.636 193.09C191.624 193.111 194.158 192.505 198.886 190.161C202.165 188.537 204.847 187.361 204.847 187.549C204.847 187.737 203.965 191.074 202.887 194.964C197.59 214.078 200.503 226.866 210.154 226.866C220.563 226.866 230.836 210.18 234.064 188.029C235.051 181.264 235.535 179.928 236.805 180.469C237.653 180.831 240.597 181.318 243.347 181.552C249.577 182.082 254.847 179.287 254.847 175.453C254.847 173.102 254.649 173.031 249.557 173.556C245.43 173.982 243.123 173.61 239.057 171.861C236.192 170.628 233.847 169.034 233.847 168.318C233.847 167.603 237.062 164.171 240.991 160.692C249.385 153.258 262.939 138.258 267.024 131.881C272.902 122.703 272.838 114.348 266.87 111.875C257.506 107.997 245.107 118.503 229.703 143.366C226.296 148.866 223.421 153.491 223.316 153.644C223.211 153.797 222.026 153.504 220.683 152.994C215.715 151.105 213.302 155.381 215.998 161.297C216.966 163.423 216.768 164.546 214.748 168.398C212.154 173.343 208.895 176.253 201.847 179.917C195.971 182.973 187.007 183.226 183.91 180.423C181.801 178.514 181.801 178.514 188.204 176.902C196.35 174.851 202.256 170.944 204.827 165.905C208.464 158.776 206.71 152.453 200.246 149.385C192.932 145.915 180.633 150.338 174.211 158.748C170.886 163.102 167.847 171.085 167.847 175.463C167.847 177.833 162.978 182.245 156.973 185.319C153.957 186.862 153.437 186.885 152.082 185.53C150.727 184.175 151.045 183.341 155.064 177.69C163.505 165.822 164.775 161.026 160.533 157.04C155.709 152.508 145.23 155.01 135.733 162.961C127.488 169.865 130.316 165.716 139.758 157.057C150.249 147.437 160.225 135.379 163.495 128.366C166.44 122.054 166.691 113.94 164.018 111.521C162.955 110.559 160.507 109.866 158.168 109.866C149 109.866 140.902 119.931 125.846 150.042C113.927 173.88 108.094 182.722 96.8999 193.926C82.6459 208.191 70.4299 214.783 56.6619 215.638C47.2049 216.226 44.8249 215.663 40.4299 211.805C35.2789 207.282 33.4949 201.631 34.0669 191.64C34.6639 181.195 38.4299 171.21 47.0789 157.141C66.8909 124.91 103.639 91.8014 111.203 99.3654C115.653 103.815 109.895 117.163 96.0199 134.559C86.4069 146.612 85.0699 149.466 87.0729 153.665C88.6869 157.048 92.2799 157.567 96.4149 155.012C103.245 150.793 117.837 129.857 122.022 118.274C126.206 106.692 124.22 93.6624 117.762 90.3224C114.357 88.5614 106.799 88.5384 101.347 90.2724ZM157.838 123.616C157.832 124.579 156.53 127.616 154.943 130.366C151.738 135.92 138.942 151.295 138.169 150.521C137.291 149.643 147.74 130.351 151.426 126.045C155.173 121.667 157.854 120.651 157.838 123.616ZM259.847 125.416C259.847 129.752 251.439 140.973 238.92 153.343C234.48 157.73 230.847 161.008 230.847 160.628C230.847 159.362 241.999 141.462 247.057 134.611C253.972 125.244 259.847 121.02 259.847 125.416ZM196.486 159.368C197.59 162.244 195.786 165.877 192.078 168.249C187.743 171.022 182.876 172.129 180.8 170.815C179.561 170.031 179.66 169.34 181.468 166.13C185.212 159.485 194.863 155.139 196.486 159.368ZM225.847 181.761C225.847 189.444 222.629 199.685 218.522 205.069C209.716 216.616 209.67 204.891 218.444 185.051C220.957 179.368 223.458 175.866 225.002 175.866C225.467 175.866 225.847 178.519 225.847 181.761ZM164.847 203.987C140.587 206.39 112.78 214.357 91.4869 225.006C72.2059 234.648 64.8469 240.877 64.8469 247.555C64.8469 252.61 68.0009 254.866 75.0679 254.866C82.6519 254.866 86.0209 253.368 97.5409 244.877C121.848 226.958 147.442 216.497 177.009 212.396C190.644 210.505 191.577 210.24 192.827 207.903C194.503 204.771 191.437 203.384 182.444 203.206C177.991 203.118 170.072 203.469 164.847 203.987Z" fill="white"/>
</svg>
