<svg width="183" height="50" viewBox="0 0 183 50" fill="none" xmlns="http://www.w3.org/2000/svg">
<g filter="url(#filter0_d_132_1205)">
<rect x="4" width="175" height="42" rx="10" fill="#FF0000"/>
<path d="M4 10C4 4.47715 8.47715 0 14 0H49C54.5228 0 59 4.47715 59 10V42H14C8.47715 42 4 37.5228 4 32V10Z" fill="white"/>
<rect x="29.6062" y="14" width="2.32809" height="12.1578" fill="#FF0000"/>
<rect x="33.7451" y="17.1042" width="2.32809" height="9.0537" fill="#FF0000"/>
<circle cx="34.844" cy="15.3581" r="1.22872" fill="#FF0000"/>
<path d="M40.4701 17.4922C41.1427 17.6992 41.3108 17.4276 41.5695 17.2982C41.8282 17.1689 42.061 17.0396 43.2509 17.0396C44.7383 17.0396 45.5143 18.0743 45.5143 18.6563C45.5143 19.2383 45.579 24.7352 45.579 24.9292C45.579 25.1232 45.579 26.1579 44.3503 26.1579C43.3673 26.1579 43.2078 25.5543 43.2509 25.2526C43.2293 24.2825 43.1991 22.045 43.2509 20.855C43.3155 19.3676 43.0569 18.5269 42.0222 18.5269C40.9875 18.5269 40.7288 18.721 40.4701 19.2383C40.2114 19.7557 40.2761 24.6705 40.2761 25.0585C40.2761 25.4466 40.2114 26.2226 39.112 26.2226C38.2325 26.2226 37.9696 25.7052 37.948 25.4466V18.2683C37.948 17.1042 39.6294 17.2336 40.4701 17.4922Z" fill="#FF0000"/>
<path fill-rule="evenodd" clip-rule="evenodd" d="M24.1735 17.1044C25.1436 17.0397 27.2389 17.5183 27.8597 19.9498C28.6357 22.9893 27.0837 25.8994 25.0143 26.0934C23.9003 26.1978 23.2736 26.1149 22.8314 26.0564C22.4522 26.0062 22.2087 25.974 21.9101 26.0934C21.4157 26.2912 21.4505 26.7914 21.4943 27.4206C21.5078 27.6144 21.5221 27.8204 21.5221 28.0335C21.5221 28.9389 21.3281 29.7796 20.4874 29.9736C19.6467 30.1676 19 29.2622 19 28.5509V18.1391C19.0216 17.7942 19.3104 17.1044 20.2934 17.1044C20.8552 17.1044 21.0925 17.2125 21.2959 17.3052C21.5374 17.4152 21.731 17.5035 22.3628 17.3631C23.294 17.1561 23.958 17.1044 24.1735 17.1044ZM23.4623 24.7353C24.6409 24.7353 25.5964 23.3455 25.5964 21.6312C25.5964 19.9168 24.6409 18.527 23.4623 18.527C22.2837 18.527 21.3282 19.9168 21.3282 21.6312C21.3282 23.3455 22.2837 24.7353 23.4623 24.7353Z" fill="#FF0000"/>
</g>
<path d="M86.9573 21.399V20.0016H90.178C90.621 20.0016 91.013 19.9107 91.3538 19.729C91.706 19.5472 91.9786 19.2916 92.1718 18.9621C92.3763 18.6327 92.4785 18.2407 92.4785 17.7863C92.4785 17.3319 92.3763 16.9399 92.1718 16.6105C91.9786 16.281 91.706 16.0254 91.3538 15.8436C91.013 15.6619 90.621 15.571 90.178 15.571H86.9573V14.1736H90.2802C91.0073 14.1736 91.6549 14.3213 92.2229 14.6167C92.8023 14.9121 93.2567 15.3324 93.5862 15.8777C93.927 16.4117 94.0974 17.0479 94.0974 17.7863C94.0974 18.5134 93.927 19.1496 93.5862 19.6949C93.2567 20.2288 92.8023 20.6492 92.2229 20.9559C91.6549 21.2513 91.0073 21.399 90.2802 21.399H86.9573ZM85.8837 26V14.1736H87.4855V26H85.8837ZM95.9454 26V13.8328H97.4791V26H95.9454ZM99.74 26V17.9056H101.274V26H99.74ZM100.507 16.2867C100.223 16.2867 99.99 16.1958 99.8082 16.014C99.6264 15.8209 99.5355 15.5823 99.5355 15.2983C99.5355 15.0257 99.6264 14.7985 99.8082 14.6167C99.99 14.4236 100.223 14.327 100.507 14.327C100.791 14.327 101.024 14.4236 101.206 14.6167C101.387 14.7985 101.478 15.0257 101.478 15.2983C101.478 15.5823 101.387 15.8209 101.206 16.014C101.024 16.1958 100.791 16.2867 100.507 16.2867ZM109.26 26V21.2797C109.26 20.6662 109.067 20.1607 108.68 19.763C108.294 19.3654 107.794 19.1666 107.181 19.1666C106.772 19.1666 106.408 19.2575 106.09 19.4393C105.772 19.621 105.522 19.871 105.34 20.1891C105.158 20.5072 105.068 20.8707 105.068 21.2797L104.437 20.9218C104.437 20.3083 104.573 19.763 104.846 19.2859C105.119 18.8087 105.499 18.4339 105.988 18.1612C106.476 17.8772 107.027 17.7352 107.641 17.7352C108.254 17.7352 108.794 17.8885 109.26 18.1953C109.737 18.502 110.112 18.9053 110.384 19.4052C110.657 19.8937 110.793 20.4163 110.793 20.9729V26H109.26ZM103.534 26V17.9056H105.068V26H103.534ZM116.619 26.1704C115.812 26.1704 115.085 25.9886 114.438 25.6251C113.79 25.2502 113.279 24.7447 112.904 24.1085C112.529 23.4723 112.342 22.7509 112.342 21.9443C112.342 21.149 112.523 20.4333 112.887 19.7971C113.262 19.1609 113.762 18.6611 114.386 18.2975C115.023 17.9226 115.733 17.7352 116.517 17.7352C117.266 17.7352 117.925 17.9056 118.493 18.2464C119.073 18.5872 119.521 19.0587 119.839 19.6608C120.169 20.2629 120.334 20.9445 120.334 21.7057C120.334 21.8193 120.328 21.9443 120.317 22.0806C120.305 22.2056 120.283 22.3533 120.248 22.5237H113.415V21.2456H119.431L118.868 21.7398C118.868 21.1945 118.772 20.7344 118.578 20.3595C118.385 19.9732 118.113 19.6778 117.76 19.4733C117.408 19.2575 116.982 19.1496 116.482 19.1496C115.96 19.1496 115.5 19.2632 115.102 19.4904C114.705 19.7176 114.398 20.0357 114.182 20.4447C113.966 20.8537 113.858 21.3365 113.858 21.8931C113.858 22.4612 113.972 22.961 114.199 23.3927C114.426 23.8131 114.75 24.1425 115.17 24.3811C115.591 24.6083 116.073 24.7219 116.619 24.7219C117.073 24.7219 117.488 24.6424 117.863 24.4834C118.249 24.3243 118.578 24.0857 118.851 23.7676L119.839 24.7731C119.453 25.2275 118.976 25.574 118.408 25.8126C117.851 26.0511 117.255 26.1704 116.619 26.1704ZM115.477 16.6957L114.778 15.997L116.994 13.2534L118.204 14.4633L115.477 16.6957ZM125.448 26.1704C124.71 26.1704 124.039 25.9886 123.437 25.6251C122.835 25.2502 122.358 24.7447 122.006 24.1085C121.665 23.4723 121.495 22.7566 121.495 21.9613C121.495 21.1661 121.665 20.4504 122.006 19.8142C122.358 19.178 122.83 18.6724 123.42 18.2975C124.022 17.9226 124.698 17.7352 125.448 17.7352C126.062 17.7352 126.607 17.8658 127.084 18.1271C127.573 18.377 127.965 18.7292 128.26 19.1836C128.555 19.6267 128.72 20.1436 128.754 20.7344V23.1712C128.72 23.7506 128.555 24.2675 128.26 24.7219C127.976 25.1764 127.59 25.5342 127.101 25.7955C126.624 26.0454 126.073 26.1704 125.448 26.1704ZM125.704 24.7219C126.465 24.7219 127.078 24.4663 127.544 23.9551C128.01 23.4325 128.243 22.7679 128.243 21.9613C128.243 21.4046 128.135 20.9218 127.919 20.5128C127.715 20.0925 127.419 19.7687 127.033 19.5415C126.647 19.3029 126.198 19.1836 125.687 19.1836C125.176 19.1836 124.721 19.3029 124.324 19.5415C123.937 19.7801 123.631 20.1095 123.403 20.5299C123.187 20.9389 123.08 21.4103 123.08 21.9443C123.08 22.4896 123.187 22.9724 123.403 23.3927C123.631 23.8017 123.943 24.1255 124.341 24.3641C124.738 24.6026 125.193 24.7219 125.704 24.7219ZM128.141 26V23.8188L128.43 21.842L128.141 19.8823V17.9056H129.691V26H128.141ZM131.924 26V17.9056H133.458V26H131.924ZM137.394 26V21.1093C137.394 20.5072 137.207 20.0357 136.832 19.6949C136.468 19.3427 136.008 19.1666 135.452 19.1666C135.077 19.1666 134.742 19.2461 134.446 19.4052C134.151 19.5642 133.912 19.7858 133.731 20.0698C133.549 20.3538 133.458 20.6946 133.458 21.0922L132.827 20.7855C132.827 20.172 132.958 19.6381 133.219 19.1836C133.492 18.7292 133.861 18.377 134.327 18.1271C134.793 17.8658 135.315 17.7352 135.895 17.7352C136.463 17.7352 136.974 17.8601 137.428 18.1101C137.894 18.36 138.258 18.7122 138.519 19.1666C138.792 19.621 138.928 20.1607 138.928 20.7855V26H137.394ZM142.865 26V21.1093C142.865 20.5072 142.677 20.0357 142.302 19.6949C141.939 19.3427 141.484 19.1666 140.939 19.1666C140.564 19.1666 140.223 19.2461 139.916 19.4052C139.621 19.5642 139.382 19.7858 139.201 20.0698C139.019 20.3538 138.928 20.6946 138.928 21.0922L138.059 20.7855C138.093 20.1607 138.258 19.6267 138.553 19.1836C138.86 18.7292 139.252 18.377 139.729 18.1271C140.206 17.8658 140.729 17.7352 141.297 17.7352C141.887 17.7352 142.416 17.8601 142.882 18.1101C143.347 18.36 143.717 18.7122 143.989 19.1666C144.273 19.621 144.415 20.1663 144.415 20.8025V26H142.865ZM150.251 26.1704C149.445 26.1704 148.718 25.9886 148.07 25.6251C147.422 25.2502 146.911 24.7447 146.536 24.1085C146.161 23.4723 145.974 22.7509 145.974 21.9443C145.974 21.149 146.156 20.4333 146.519 19.7971C146.894 19.1609 147.394 18.6611 148.019 18.2975C148.655 17.9226 149.365 17.7352 150.149 17.7352C150.899 17.7352 151.558 17.9056 152.126 18.2464C152.705 18.5872 153.154 19.0587 153.472 19.6608C153.801 20.2629 153.966 20.9445 153.966 21.7057C153.966 21.8193 153.96 21.9443 153.949 22.0806C153.938 22.2056 153.915 22.3533 153.881 22.5237H147.048V21.2456H153.063L152.501 21.7398C152.501 21.1945 152.404 20.7344 152.211 20.3595C152.018 19.9732 151.745 19.6778 151.393 19.4733C151.041 19.2575 150.615 19.1496 150.115 19.1496C149.592 19.1496 149.132 19.2632 148.735 19.4904C148.337 19.7176 148.03 20.0357 147.814 20.4447C147.598 20.8537 147.491 21.3365 147.491 21.8931C147.491 22.4612 147.604 22.961 147.831 23.3927C148.059 23.8131 148.382 24.1425 148.803 24.3811C149.223 24.6083 149.706 24.7219 150.251 24.7219C150.706 24.7219 151.12 24.6424 151.495 24.4834C151.881 24.3243 152.211 24.0857 152.484 23.7676L153.472 24.7731C153.086 25.2275 152.609 25.574 152.04 25.8126C151.484 26.0511 150.887 26.1704 150.251 26.1704Z" fill="white"/>
<defs>
<filter id="filter0_d_132_1205" x="0" y="0" width="183" height="50" filterUnits="userSpaceOnUse" color-interpolation-filters="sRGB">
<feFlood flood-opacity="0" result="BackgroundImageFix"/>
<feColorMatrix in="SourceAlpha" type="matrix" values="0 0 0 0 0 0 0 0 0 0 0 0 0 0 0 0 0 0 127 0" result="hardAlpha"/>
<feOffset dy="4"/>
<feGaussianBlur stdDeviation="2"/>
<feComposite in2="hardAlpha" operator="out"/>
<feColorMatrix type="matrix" values="0 0 0 0 0 0 0 0 0 0 0 0 0 0 0 0 0 0 0.25 0"/>
<feBlend mode="normal" in2="BackgroundImageFix" result="effect1_dropShadow_132_1205"/>
<feBlend mode="normal" in="SourceGraphic" in2="effect1_dropShadow_132_1205" result="shape"/>
</filter>
</defs>
</svg>
