<svg width="183" height="50" viewBox="0 0 183 50" fill="none" xmlns="http://www.w3.org/2000/svg">
<g filter="url(#filter0_d_131_1204)">
<rect x="4" width="175" height="42" rx="10" fill="#FF0000"/>
<path d="M4 10C4 4.47715 8.47715 0 14 0H49C54.5228 0 59 4.47715 59 10V42H14C8.47715 42 4 37.5228 4 32V10Z" fill="white"/>
<path fill-rule="evenodd" clip-rule="evenodd" d="M45.8214 11.1221C45.1785 11.3589 44.2541 12.2849 43.6623 13.2847C42.0173 16.0639 41.7758 19.6437 43.1657 20.6447C43.3698 20.7917 43.7583 20.899 44.2023 20.9308C44.8287 20.9758 45.016 20.931 45.7912 20.5505C46.4064 20.2487 46.8986 19.8828 47.4323 19.331C48.1342 18.6054 48.1881 18.5116 48.1124 18.1508C48.0232 17.726 47.7398 17.2166 47.5927 17.2166C47.5424 17.2166 47.1834 17.5199 46.795 17.8904C46.0819 18.5707 45.3021 19.0165 44.8166 19.0213C44.2187 19.0274 43.8818 18.0911 44.1782 17.247C44.2834 16.9472 44.4084 16.8546 44.8604 16.7416C46.2547 16.393 47.302 15.5651 47.9426 14.3049C48.613 12.9862 48.5407 11.7553 47.7633 11.2495C47.3478 10.9792 46.3812 10.9158 45.8214 11.1221ZM39.9645 11.9444C39.5938 12.0186 39.3272 12.188 38.9609 12.5826C38.6866 12.8782 38.436 13.1199 38.4039 13.1199C38.372 13.1199 38.3458 12.9635 38.3458 12.7725C38.3458 12.3948 38.1319 12.2811 37.4148 12.2781C36.9258 12.276 36.9409 12.228 36.2165 16.0719C35.6793 18.9222 35.6294 19.1024 35.2886 19.4226C34.3145 20.3376 34.2369 19.3227 35.0105 15.7882C35.3179 14.384 35.5369 13.1336 35.4973 13.0096C35.4029 12.7142 34.7927 12.4696 34.3965 12.5683C34.1957 12.6183 34.0383 12.7735 33.959 12.9995L33.835 13.3528L33.4986 13.1058C33.0914 12.807 32.2249 12.7755 31.7081 13.041C30.5357 13.6428 29.2798 15.7914 28.83 17.9646C28.4478 19.8108 28.6384 21.221 29.3679 21.9459C29.7808 22.3561 29.8828 22.3978 30.474 22.3973C31.2703 22.3968 31.7752 22.1193 32.235 21.4295L32.5653 20.9338L32.7445 21.2742C32.843 21.4614 33.0105 21.6806 33.1167 21.7613C33.4107 21.9849 34.0528 21.9439 34.6006 21.6664C34.8713 21.5292 35.1095 21.4343 35.1298 21.4555C35.1678 21.4951 34.8481 23.26 34.7931 23.3147C34.7762 23.3314 33.8075 23.4853 32.6405 23.6565C31.4735 23.8279 29.5729 24.135 28.4168 24.3391C27.2608 24.5432 26.284 24.6795 26.2462 24.6419C26.2083 24.6043 26.6577 22.8775 27.2448 20.8047C29.0721 14.3531 29.2483 13.6831 29.1766 13.4586C29.0374 13.023 27.8786 13.2771 27.336 13.8622C27.1843 14.0259 26.7741 15.0067 26.4007 16.0984C25.3246 19.2441 24.7101 20.3798 23.9041 20.7112C23.5812 20.8441 23.5032 20.8347 23.2822 20.6364C22.9418 20.3308 23.0259 19.659 23.6614 17.6104C24.2512 15.7094 24.2818 15.1699 23.8205 14.8097C23.5953 14.6337 23.3589 14.5653 23.0621 14.59L22.6309 14.626L22.5534 15.349C22.5106 15.7466 22.1857 16.9124 21.8311 17.9396C21.2218 19.7049 21.1862 19.8743 21.1806 21.0337C21.1748 22.2288 21.1838 22.2697 21.5296 22.6287C22.207 23.3318 23.0807 23.2666 24.1073 22.4366C24.4747 22.1394 24.7952 21.916 24.8196 21.9401C24.8868 22.007 23.8462 25.1558 23.7158 25.2803C23.653 25.34 23.2557 25.5273 22.833 25.6965C20.9495 26.4499 18.6613 28.4372 17.8215 30.049C17.1525 31.3329 16.9546 32.0499 17.0084 32.9943C17.0462 33.6593 17.1175 33.8924 17.3926 34.2505C18.417 35.5841 20.2427 35.4274 21.8101 33.8711C23.0723 32.6179 24.2276 30.5577 25.0468 28.1003L25.375 27.1154L26.43 26.8744C27.9763 26.5212 32.9594 25.5636 33.7345 25.4707L34.4019 25.3906L34.4083 25.8967C34.4235 27.0914 35.5567 26.8986 35.9375 25.6366C36.0325 25.3217 36.1648 25.1451 36.3332 25.1079C36.6985 25.0274 41.9504 24.3576 43.3819 24.209C45.6795 23.9704 46.2336 23.7569 46.2336 23.1101C46.2336 22.7244 45.7739 22.3121 45.2511 22.2292C44.7083 22.1429 42.3056 22.3616 38.7156 22.8237C37.484 22.9823 36.4557 23.0915 36.4304 23.0664C36.386 23.0223 36.5927 21.4159 36.7147 20.8577L36.7747 20.583L37.1659 20.8761C38.9675 22.2259 40.7704 20.7827 41.7044 17.2432C42.1212 15.6642 42.1578 13.6887 41.7855 12.8789C41.3696 11.9744 40.9332 11.7504 39.9645 11.9444ZM46.8201 12.9816C46.9169 13.6608 46.3443 14.5024 45.4915 14.9344C44.8572 15.2556 44.6161 15.2439 44.7242 14.8971C44.8901 14.3655 45.3897 13.4834 45.766 13.0578C46.2233 12.5408 46.7518 12.5025 46.8201 12.9816ZM40.1329 14.0485C40.7097 14.9228 39.9957 18.0952 38.9799 19.1718C38.5732 19.6027 37.9961 19.7921 37.5745 19.6331C37.3981 19.5664 37.2538 19.4428 37.2538 19.3583C37.2541 19.0439 37.8746 16.6411 38.1955 15.7118C38.4366 15.0133 38.6636 14.6082 39.0228 14.2358C39.5986 13.6384 39.836 13.5983 40.1329 14.0485ZM33.3589 14.5561C33.688 14.763 33.5498 15.512 32.7403 17.9104C32.152 19.6529 31.6867 20.3193 31.1513 20.1859C30.6191 20.0532 30.42 19.5086 30.4876 18.3703C30.585 16.7343 31.3155 15.2979 32.3447 14.719C32.8644 14.4267 33.0944 14.3899 33.3589 14.5561ZM22.9874 28.091C22.7864 28.7365 21.8088 30.6689 21.2959 31.4348C20.0743 33.2595 18.8059 33.8157 18.8096 32.5251C18.8131 31.2552 20.4735 29.1818 22.3275 28.132C22.999 27.7518 23.0951 27.7458 22.9874 28.091Z" fill="#FF0000"/>
</g>
<path d="M88.4337 21.1945L83.7816 14.1736H85.639L89.388 19.9164H88.553L92.319 14.1736H94.1424L89.4562 21.1945H88.4337ZM88.1611 26V20.1379H89.7629V26H88.1611ZM96.6743 26.1704C95.9359 26.1704 95.2656 25.9886 94.6635 25.6251C94.0614 25.2502 93.5842 24.7447 93.2321 24.1085C92.8912 23.4723 92.7208 22.7566 92.7208 21.9613C92.7208 21.1661 92.8912 20.4504 93.2321 19.8142C93.5842 19.178 94.0557 18.6724 94.6465 18.2975C95.2486 17.9226 95.9245 17.7352 96.6743 17.7352C97.2878 17.7352 97.8331 17.8658 98.3102 18.1271C98.7988 18.377 99.1907 18.7292 99.4861 19.1836C99.7814 19.6267 99.9462 20.1436 99.9803 20.7344V23.1712C99.9462 23.7506 99.7814 24.2675 99.4861 24.7219C99.2021 25.1764 98.8158 25.5342 98.3273 25.7955C97.8501 26.0454 97.2992 26.1704 96.6743 26.1704ZM96.9299 24.7219C97.6911 24.7219 98.3046 24.4663 98.7704 23.9551C99.2361 23.4325 99.469 22.7679 99.469 21.9613C99.469 21.4046 99.3611 20.9218 99.1453 20.5128C98.9408 20.0925 98.6454 19.7687 98.2591 19.5415C97.8729 19.3029 97.4241 19.1836 96.9129 19.1836C96.4017 19.1836 95.9472 19.3029 95.5496 19.5415C95.1634 19.7801 94.8566 20.1095 94.6294 20.5299C94.4136 20.9389 94.3056 21.4103 94.3056 21.9443C94.3056 22.4896 94.4136 22.9724 94.6294 23.3927C94.8566 23.8017 95.169 24.1255 95.5667 24.3641C95.9643 24.6026 96.4187 24.7219 96.9299 24.7219ZM99.3668 26V23.8188L99.6565 21.842L99.3668 19.8823V17.9056H100.918V26H99.3668ZM107.411 26.1704C106.797 26.1704 106.24 26.0454 105.741 25.7955C105.252 25.5342 104.86 25.1764 104.565 24.7219C104.269 24.2675 104.105 23.7506 104.071 23.1712V20.7344C104.105 20.1436 104.269 19.6267 104.565 19.1836C104.872 18.7292 105.269 18.377 105.758 18.1271C106.258 17.8658 106.808 17.7352 107.411 17.7352C108.149 17.7352 108.814 17.9226 109.404 18.2975C110.007 18.6724 110.478 19.178 110.819 19.8142C111.16 20.4504 111.33 21.1661 111.33 21.9613C111.33 22.7566 111.16 23.4723 110.819 24.1085C110.478 24.7447 110.007 25.2502 109.404 25.6251C108.814 25.9886 108.149 26.1704 107.411 26.1704ZM107.155 24.7219C107.666 24.7219 108.115 24.6026 108.501 24.3641C108.887 24.1255 109.194 23.8017 109.421 23.3927C109.649 22.9724 109.762 22.4896 109.762 21.9443C109.762 21.4103 109.649 20.9332 109.421 20.5128C109.194 20.0925 108.887 19.7687 108.501 19.5415C108.115 19.3029 107.672 19.1836 107.172 19.1836C106.661 19.1836 106.212 19.3029 105.826 19.5415C105.44 19.7687 105.138 20.0925 104.923 20.5128C104.707 20.9332 104.599 21.416 104.599 21.9613C104.599 22.4953 104.701 22.9724 104.906 23.3927C105.121 23.8017 105.423 24.1255 105.809 24.3641C106.206 24.6026 106.655 24.7219 107.155 24.7219ZM103.15 29.3911V17.9056H104.684V20.0357L104.394 21.9954L104.684 23.9721V29.3911H103.15ZM116.818 26.1704C116.011 26.1704 115.284 25.9886 114.636 25.6251C113.989 25.2502 113.478 24.7447 113.103 24.1085C112.728 23.4723 112.54 22.7509 112.54 21.9443C112.54 21.149 112.722 20.4333 113.086 19.7971C113.461 19.1609 113.961 18.6611 114.585 18.2975C115.222 17.9226 115.932 17.7352 116.715 17.7352C117.465 17.7352 118.124 17.9056 118.692 18.2464C119.272 18.5872 119.72 19.0587 120.038 19.6608C120.368 20.2629 120.533 20.9445 120.533 21.7057C120.533 21.8193 120.527 21.9443 120.516 22.0806C120.504 22.2056 120.481 22.3533 120.447 22.5237H113.614V21.2456H119.629L119.067 21.7398C119.067 21.1945 118.971 20.7344 118.777 20.3595C118.584 19.9732 118.312 19.6778 117.959 19.4733C117.607 19.2575 117.181 19.1496 116.681 19.1496C116.159 19.1496 115.699 19.2632 115.301 19.4904C114.903 19.7176 114.597 20.0357 114.381 20.4447C114.165 20.8537 114.057 21.3365 114.057 21.8931C114.057 22.4612 114.171 22.961 114.398 23.3927C114.625 23.8131 114.949 24.1425 115.369 24.3811C115.79 24.6083 116.272 24.7219 116.818 24.7219C117.272 24.7219 117.687 24.6424 118.062 24.4834C118.448 24.3243 118.777 24.0857 119.05 23.7676L120.038 24.7731C119.652 25.2275 119.175 25.574 118.607 25.8126C118.05 26.0511 117.454 26.1704 116.818 26.1704ZM115.676 16.6957L114.977 15.997L117.193 13.2534L118.403 14.4633L115.676 16.6957ZM125.647 26.1704C124.909 26.1704 124.238 25.9886 123.636 25.6251C123.034 25.2502 122.557 24.7447 122.205 24.1085C121.864 23.4723 121.694 22.7566 121.694 21.9613C121.694 21.1661 121.864 20.4504 122.205 19.8142C122.557 19.178 123.029 18.6724 123.619 18.2975C124.221 17.9226 124.897 17.7352 125.647 17.7352C126.261 17.7352 126.806 17.8658 127.283 18.1271C127.772 18.377 128.164 18.7292 128.459 19.1836C128.754 19.6267 128.919 20.1436 128.953 20.7344V23.1712C128.919 23.7506 128.754 24.2675 128.459 24.7219C128.175 25.1764 127.789 25.5342 127.3 25.7955C126.823 26.0454 126.272 26.1704 125.647 26.1704ZM125.903 24.7219C126.664 24.7219 127.277 24.4663 127.743 23.9551C128.209 23.4325 128.442 22.7679 128.442 21.9613C128.442 21.4046 128.334 20.9218 128.118 20.5128C127.914 20.0925 127.618 19.7687 127.232 19.5415C126.846 19.3029 126.397 19.1836 125.886 19.1836C125.374 19.1836 124.92 19.3029 124.522 19.5415C124.136 19.7801 123.829 20.1095 123.602 20.5299C123.386 20.9389 123.278 21.4103 123.278 21.9443C123.278 22.4896 123.386 22.9724 123.602 23.3927C123.829 23.8017 124.142 24.1255 124.539 24.3641C124.937 24.6026 125.392 24.7219 125.903 24.7219ZM128.34 26V23.8188L128.629 21.842L128.34 19.8823V17.9056H129.89V26H128.34ZM132.123 26V17.9056H133.657V26H132.123ZM137.593 26V21.1093C137.593 20.5072 137.406 20.0357 137.031 19.6949C136.667 19.3427 136.207 19.1666 135.651 19.1666C135.276 19.1666 134.941 19.2461 134.645 19.4052C134.35 19.5642 134.111 19.7858 133.93 20.0698C133.748 20.3538 133.657 20.6946 133.657 21.0922L133.026 20.7855C133.026 20.172 133.157 19.6381 133.418 19.1836C133.691 18.7292 134.06 18.377 134.526 18.1271C134.992 17.8658 135.514 17.7352 136.094 17.7352C136.662 17.7352 137.173 17.8601 137.627 18.1101C138.093 18.36 138.457 18.7122 138.718 19.1666C138.991 19.621 139.127 20.1607 139.127 20.7855V26H137.593ZM143.063 26V21.1093C143.063 20.5072 142.876 20.0357 142.501 19.6949C142.138 19.3427 141.683 19.1666 141.138 19.1666C140.763 19.1666 140.422 19.2461 140.115 19.4052C139.82 19.5642 139.581 19.7858 139.4 20.0698C139.218 20.3538 139.127 20.6946 139.127 21.0922L138.258 20.7855C138.292 20.1607 138.457 19.6267 138.752 19.1836C139.059 18.7292 139.451 18.377 139.928 18.1271C140.405 17.8658 140.928 17.7352 141.496 17.7352C142.086 17.7352 142.615 17.8601 143.08 18.1101C143.546 18.36 143.915 18.7122 144.188 19.1666C144.472 19.621 144.614 20.1663 144.614 20.8025V26H143.063ZM150.45 26.1704C149.644 26.1704 148.916 25.9886 148.269 25.6251C147.621 25.2502 147.11 24.7447 146.735 24.1085C146.36 23.4723 146.173 22.7509 146.173 21.9443C146.173 21.149 146.355 20.4333 146.718 19.7971C147.093 19.1609 147.593 18.6611 148.218 18.2975C148.854 17.9226 149.564 17.7352 150.348 17.7352C151.098 17.7352 151.757 17.9056 152.325 18.2464C152.904 18.5872 153.353 19.0587 153.671 19.6608C154 20.2629 154.165 20.9445 154.165 21.7057C154.165 21.8193 154.159 21.9443 154.148 22.0806C154.137 22.2056 154.114 22.3533 154.08 22.5237H147.246V21.2456H153.262L152.7 21.7398C152.7 21.1945 152.603 20.7344 152.41 20.3595C152.217 19.9732 151.944 19.6778 151.592 19.4733C151.24 19.2575 150.814 19.1496 150.314 19.1496C149.791 19.1496 149.331 19.2632 148.933 19.4904C148.536 19.7176 148.229 20.0357 148.013 20.4447C147.797 20.8537 147.69 21.3365 147.69 21.8931C147.69 22.4612 147.803 22.961 148.03 23.3927C148.258 23.8131 148.581 24.1425 149.002 24.3811C149.422 24.6083 149.905 24.7219 150.45 24.7219C150.905 24.7219 151.319 24.6424 151.694 24.4834C152.08 24.3243 152.41 24.0857 152.682 23.7676L153.671 24.7731C153.285 25.2275 152.807 25.574 152.239 25.8126C151.683 26.0511 151.086 26.1704 150.45 26.1704Z" fill="white"/>
<defs>
<filter id="filter0_d_131_1204" x="0" y="0" width="183" height="50" filterUnits="userSpaceOnUse" color-interpolation-filters="sRGB">
<feFlood flood-opacity="0" result="BackgroundImageFix"/>
<feColorMatrix in="SourceAlpha" type="matrix" values="0 0 0 0 0 0 0 0 0 0 0 0 0 0 0 0 0 0 127 0" result="hardAlpha"/>
<feOffset dy="4"/>
<feGaussianBlur stdDeviation="2"/>
<feComposite in2="hardAlpha" operator="out"/>
<feColorMatrix type="matrix" values="0 0 0 0 0 0 0 0 0 0 0 0 0 0 0 0 0 0 0.25 0"/>
<feBlend mode="normal" in2="BackgroundImageFix" result="effect1_dropShadow_131_1204"/>
<feBlend mode="normal" in="SourceGraphic" in2="effect1_dropShadow_131_1204" result="shape"/>
</filter>
</defs>
</svg>
